<svg viewBox="0 0 624.48 591.98" fill="none" xmlns="http://www.w3.org/2000/svg">
  <g fill="#000" stroke="#000">
    <polygon points="387.42 211.91 575.53 105.26 391.27 .57 197.17 107.02 387.42 211.91"/>
    <polygon points="586.3 231.44 391.2 343.28 391.2 231.74 581.93 123.76 586.3 231.44"/>
    <polyline fill="none" stroke-width="19.66" stroke-linejoin="round" points="346.93 305.19 200.78 221.95 202.1 166.7"/>
    <polygon points="196.62 396.32 384.72 289.67 200.46 184.98 6.36 291.42 196.62 396.32"/>
    <polygon points="395.49 415.85 200.4 527.69 200.4 416.15 391.12 308.17 395.49 415.85"/>
    <polyline fill="none" stroke-width="19.66" stroke-linejoin="round" points="205.31 519.18 9.97 406.36 11.29 351.11"/>
    <polyline points="323.76 407.3 425.09 459.74 613.19 353.09 511.6 300.67"/>
    <polygon points="623.97 479.27 428.87 591.11 428.87 479.58 619.59 371.59 623.97 479.27"/>
    <polyline fill="none" stroke-width="19.66" stroke-linejoin="round" points="433.78 582.6 238.44 469.78 239.77 414.54"/>
  </g>
</svg>
