<?xml version="1.0" encoding="UTF-8"?>
<svg xmlns="http://www.w3.org/2000/svg" viewBox="0 0 1018.97 1024.2">
  <defs>
    <style>
      .cls-1 {
        fill: #231f20;
      }

      .cls-2 {
        fill: #fff;
      }

      .cls-3 {
        stroke-width: 15.59px;
      }

      .cls-3, .cls-4 {
        stroke: #90c7a1;
      }

      .cls-3, .cls-4, .cls-5, .cls-6 {
        stroke-miterlimit: 10;
      }

      .cls-3, .cls-4, .cls-6 {
        fill: none;
        stroke-linecap: round;
      }

      .cls-4 {
        stroke-width: 15.59px;
      }

      .cls-7 {
        fill: #c4e1c8;
      }

      .cls-5 {
        fill: #f0b2c0;
        stroke: #e698ac;
        stroke-width: 43.09px;
      }

      .cls-6 {
        stroke: #231f20;
        stroke-width: 30px;
      }
    </style>
  </defs>
  <g id="Layer_2" data-name="Layer 2">
    <rect class="cls-2" width="1018.97" height="1018.97"/>
  </g>
  <g id="Layer_1" data-name="Layer 1">
    <g id="Layer_1-2" data-name="Layer 1">
      <g id="body">
        <path class="cls-7" d="M813.94,1015.77c.9,7.77-.3,7.96-4.76,8.04-84.78-.48-548.32,1-608.06-.53-1.47-.73-2.09-2.78-2.17-7.22.11-12.78,1.65-26.75,3.12-39.73,1.84-15.96,5.45-33.46,9-50,5.12-23.75,11.06-48.35,18.8-70.57,5.63-16.37,12.11-32.4,18.37-48.39,4.34-10.97,8.91-22.05,13.79-32.88,4.32-9.58,9.11-19.76,13.15-27.65,3.19-5.72,6.34-13.06,12.92-14.88l.11-.02c5.16-1,9.9,1.09,16.79,4.14,4.57,2.13,9.48,4.61,14.22,6.89,16.56,8.11,32.53,14.29,50.79,19.17,11.04,3.03,22.44,5.91,33.44,8.51,19.2,4.79,38.83,7.01,59.21,8.42,22.25,1.53,44.59,3.21,66.58,1.7,20.92-1.75,43.43-3.01,64.82-6.31,14.11-2.26,28.16-6.09,41.89-10.33,24.42-7.31,45.51-16.09,67.84-27.1,7.15-3.19,12.46-5.54,17.92-4.28,8.52,2.25,14.45,15.77,19.04,23.93,16.42,29.16,27.94,61.54,39.34,93.44,4.51,12.72,8.77,24.91,11.66,37.63,8.11,36.28,15.89,87.77,21.18,120.64.47,2.69.65,4.92,1.01,7.38h0Z"/>
      </g>
      <g id="Layer_3" data-name="Layer 3">
        <path class="cls-5" d="M627.1,294.34c24.46-35.47,50.14-73.77,66.43-114.08,7.22-16.19,13.63-33.95,20.22-48.94,6.18-13.9,17.28-33.1,34.46-30.46,23.41,5.96,31.05,37.52,33.27,59.11,6.69,67.74-25.52,132.27-63.58,185.89"/>
        <path class="cls-5" d="M726.83,364.35c37.01-22.06,76.32-46.18,107.91-76.04,13.31-11.71,26.53-25.18,38.77-36.07,11.41-10.06,29.5-22.89,44.02-13.34,18.81,15.17,12.6,47.05,5.62,67.6-22.13,64.38-78.29,109.62-135.23,142.51"/>
        <path class="cls-5" d="M745.48,451.11c42.63,6.23,88.35,12.3,131.7,9.06,17.71-.69,36.47-2.81,52.83-3.53,15.2-.61,37.33.84,42.57,17.41,5.02,23.63-19.9,44.46-38.28,56-57.78,35.99-129.9,35.68-194.83,25.28"/>
        <path class="cls-5" d="M386.16,284.07c-27.32-33.32-56.09-69.36-75.66-108.17-8.54-15.53-16.4-32.7-24.21-47.09-7.32-13.34-19.97-31.55-36.87-27.5-22.84,7.88-27.83,39.97-28.25,61.67-1.05,68.07,36.4,129.7,78.78,179.97"/>
        <path class="cls-5" d="M296.29,348.71c-40.04-15.9-82.68-33.48-118.62-57.94-15-9.45-30.19-20.65-44-29.45-12.87-8.12-32.76-17.92-45.58-6.18-16.16,17.96-4.97,48.45,5.18,67.63,32.07,60.04,94.71,95.79,156.15,119.23"/>
        <path class="cls-5" d="M261.3,442c-41.1,12.92-85.28,26.17-128.59,29.86-17.6,2.13-36.46,3.02-52.72,4.9-15.11,1.81-36.72,6.76-39.26,23.95-1.21,24.13,26.7,40.73,46.68,49.21,62.76,26.36,133.91,14.59,196.37-5.98"/>
      </g>
      <g id="head">
        <path class="cls-7" d="M813.31,408.87c53.86,87.03,48.53,199.6-17.33,278.71-94.6,113.17-267.83,138.66-405.32,103.37-86.89-22.07-169.62-74.62-207.58-157.6-49.27-108.72-7.3-230.95,84.86-302.55l.17-.13c76.69-60.86,179.17-84.62,276.12-75.72,105.85,9.54,213.44,61.73,269.1,153.93h-.02Z"/>
      </g>
      <g id="face">
        <circle class="cls-1" cx="318.05" cy="494.75" r="77.72"/>
        <circle class="cls-2" cx="289" cy="470.79" r="19.68"/>
        <circle class="cls-1" cx="698.61" cy="494.75" r="77.72"/>
        <circle class="cls-2" cx="669.57" cy="470.79" r="19.68"/>
      </g>
      <path class="cls-4" d="M365.88,872.86c-1.56,14.57-3.32,32-4.27,47.23-2.02,32.52-.33,64.15-1.13,96.31"/>
      <path class="cls-3" d="M649.14,1016.4c.92-14.61,1.93-32.09,2.22-47.34.61-32.56-2.45-64.08-3.04-96.24"/>
    </g>
    <g id="Layer_4" data-name="Layer 4">
      <path class="cls-6" d="M388.09,624.69c18.12,14.08,38.7,28.68,62.7,26.49,13.39-.97,25.76-7.21,38.51-10.5,11.57-3.27,23.77-3.27,35.34,0,12.75,3.29,25.13,9.54,38.51,10.5,23.99,2.18,44.57-12.41,62.69-26.49"/>
    </g>
  </g>
</svg>