<svg version="1.1" xmlns="http://www.w3.org/2000/svg" viewBox="0 0 1366 441" width="1366" height="441"><!-- svg-source:excalidraw --><metadata></metadata><defs><style class="style-fonts">
      </style></defs><g transform="translate(147 10) rotate(0 131 140.5)" stroke="none"><path fill="#ffffff" d="M 2.90,-1.85 Q 2.90,-1.85 4.90,1.28 6.89,4.41 15.64,11.18 24.38,17.95 36.12,24.94 47.87,31.94 66.47,38.60 85.07,45.27 106.96,49.55 128.85,53.83 145.32,55.67 161.78,57.52 172.69,57.44 183.60,57.37 189.03,56.79 194.45,56.20 196.80,55.13 199.15,54.05 199.53,54.05 199.92,54.06 200.29,54.15 200.67,54.25 201.01,54.43 201.34,54.62 201.63,54.88 201.92,55.13 202.13,55.45 202.35,55.77 202.48,56.14 202.61,56.50 202.65,56.88 202.70,57.27 202.65,57.65 202.60,58.03 202.45,58.39 202.31,58.75 202.09,59.06 201.87,59.38 201.58,59.63 201.28,59.88 200.94,60.06 200.60,60.24 200.22,60.32 199.85,60.41 197.77,59.13 195.69,57.85 192.94,57.83 190.18,57.82 186.25,59.71 182.32,61.60 177.60,67.27 172.89,72.93 165.85,82.86 158.82,92.78 148.61,107.94 138.40,123.09 123.02,140.89 107.64,158.68 88.96,176.06 70.29,193.44 48.44,208.66 26.59,223.88 7.67,232.71 -11.23,241.54 -27.59,244.48 -43.94,247.41 -57.82,244.87 -71.69,242.33 -84.94,235.37 -98.19,228.42 -109.36,219.32 -120.52,210.22 -126.06,201.55 -131.59,192.87 -129.91,184.04 -128.23,175.20 -114.77,168.47 -101.31,161.73 -73.27,158.13 -45.22,154.54 -8.34,153.05 28.53,151.56 69.78,150.93 111.03,150.30 150.70,150.32 190.38,150.34 222.18,150.35 253.98,150.35 274.97,150.36 295.96,150.36 306.05,150.37 316.14,150.37 318.10,150.68 320.07,151.00 320.44,151.05 320.82,151.09 321.18,151.23 321.53,151.36 321.84,151.58 322.15,151.79 322.40,152.07 322.66,152.36 322.83,152.69 323.01,153.03 323.10,153.40 323.19,153.77 323.19,154.14 323.19,154.52 323.10,154.89 323.01,155.26 322.83,155.60 322.66,155.93 322.40,156.21 322.15,156.50 321.84,156.71 321.53,156.93 321.17,157.06 320.82,157.20 320.44,157.24 320.07,157.29 311.30,158.13 302.52,158.97 272.36,164.60 242.19,170.23 223.47,176.32 204.74,182.42 194.08,188.37 183.42,194.31 179.81,197.83 176.20,201.34 177.20,203.98 178.20,206.62 181.20,208.36 184.19,210.10 187.98,210.36 191.77,210.61 197.01,209.68 202.26,208.74 208.21,206.94 214.17,205.15 219.28,203.25 224.39,201.35 226.83,199.95 229.26,198.55 229.65,197.73 230.03,196.90 230.41,196.77 230.78,196.63 231.18,196.59 231.58,196.55 231.98,196.60 232.38,196.66 232.75,196.81 233.12,196.95 233.45,197.19 233.77,197.42 234.03,197.73 234.29,198.03 234.47,198.39 234.65,198.75 234.74,199.14 234.83,199.53 234.83,199.93 234.82,200.33 234.72,200.72 234.61,201.11 234.42,201.46 234.23,201.81 233.96,202.11 233.69,202.40 233.35,202.62 233.02,202.85 230.72,204.30 228.42,205.75 225.64,208.60 222.86,211.45 218.83,218.23 214.81,225.01 212.96,229.05 211.12,233.08 216.61,232.28 222.09,231.48 233.01,225.21 243.94,218.95 255.07,212.78 266.19,206.62 277.58,200.83 288.97,195.05 297.96,191.68 306.95,188.32 311.29,186.92 315.63,185.53 315.95,185.45 316.27,185.37 316.60,185.37 316.93,185.37 317.25,185.45 317.57,185.53 317.86,185.69 318.15,185.84 318.40,186.06 318.64,186.28 318.83,186.55 319.02,186.82 319.13,187.13 319.25,187.44 319.29,187.76 319.32,188.09 319.28,188.42 319.24,188.75 319.13,189.05 319.01,189.36 318.82,189.63 318.63,189.90 318.39,190.12 318.14,190.34 317.85,190.49 317.55,190.64 315.67,196.34 313.78,202.04 312.05,205.81 310.32,209.58 312.79,213.74 315.27,217.90 321.31,220.44 327.35,222.98 338.37,224.17 349.40,225.36 361.96,226.21 374.53,227.05 382.17,229.42 389.81,231.78 392.25,236.33 394.70,240.88 392.94,246.66 391.17,252.44 387.14,259.40 383.10,266.36 381.52,270.48 379.94,274.59 379.47,276.80 379.00,279.01 378.82,279.35 378.64,279.68 378.38,279.97 378.13,280.25 377.81,280.47 377.49,280.68 377.14,280.81 376.78,280.95 376.40,280.99 376.02,281.03 375.64,280.98 375.26,280.94 374.91,280.80 374.55,280.66 374.24,280.44 373.93,280.22 373.67,279.93 373.42,279.65 373.25,279.31 373.07,278.97 372.98,278.60 372.90,278.22 372.90,277.84 372.90,277.46 373.00,277.09 373.09,276.72 372.89,274.37 372.70,272.01 372.78,271.48 372.86,270.96 373.11,270.48 373.36,270.01 373.74,269.64 374.13,269.27 374.61,269.05 375.10,268.82 375.63,268.76 376.16,268.70 376.68,268.81 377.20,268.92 377.66,269.20 378.12,269.47 378.47,269.88 378.81,270.28 379.01,270.78 379.21,271.27 379.25,271.80 379.28,272.34 379.14,272.85 379.00,273.37 378.70,273.81 378.40,274.25 377.98,274.58 377.55,274.90 377.05,275.08 376.54,275.25 376.01,275.25 375.48,275.25 374.97,275.09 374.46,274.92 374.04,274.60 373.61,274.28 373.31,273.83 373.01,273.39 372.86,272.88 372.72,272.37 372.74,271.83 372.77,271.30 372.96,270.80 373.16,270.31 373.50,269.90 373.85,269.49 374.30,269.21 374.76,268.94 375.28,268.82 375.80,268.70 376.33,268.76 376.86,268.81 377.35,269.03 377.83,269.26 378.22,269.62 378.61,269.99 378.86,270.46 379.12,270.93 379.21,271.45 379.29,271.98 379.29,271.98 379.29,271.98 379.15,275.49 379.00,279.01 378.82,279.35 378.64,279.68 378.38,279.97 378.13,280.25 377.81,280.47 377.49,280.68 377.14,280.81 376.78,280.95 376.40,280.99 376.02,281.03 375.64,280.98 375.26,280.94 374.91,280.80 374.55,280.66 374.24,280.44 373.93,280.22 373.67,279.93 373.42,279.65 373.25,279.31 373.07,278.97 372.99,278.60 372.90,278.22 372.90,277.84 372.90,277.46 373.00,277.09 373.09,276.72 374.04,274.70 374.99,272.67 376.74,268.18 378.49,263.69 382.31,257.16 386.13,250.63 387.95,246.31 389.78,242.00 388.50,239.03 387.22,236.06 380.68,234.27 374.14,232.47 361.47,231.66 348.79,230.84 336.95,229.47 325.11,228.10 317.93,224.60 310.76,221.11 307.84,215.13 304.92,209.15 306.74,203.96 308.57,198.76 311.12,195.04 313.68,191.32 314.65,188.43 315.63,185.53 315.95,185.45 316.27,185.37 316.60,185.37 316.93,185.37 317.25,185.45 317.57,185.53 317.86,185.69 318.15,185.84 318.40,186.06 318.64,186.28 318.83,186.55 319.01,186.82 319.13,187.13 319.25,187.44 319.29,187.76 319.32,188.09 319.28,188.42 319.24,188.74 319.13,189.05 319.01,189.36 318.82,189.63 318.63,189.90 318.39,190.12 318.14,190.34 317.85,190.49 317.56,190.64 313.23,192.07 308.91,193.51 300.22,196.79 291.54,200.08 280.28,205.88 269.03,211.69 257.98,217.92 246.94,224.15 235.47,230.81 224.00,237.47 217.94,239.05 211.88,240.62 209.00,237.32 206.11,234.02 207.82,227.98 209.52,221.94 213.84,214.49 218.17,207.04 221.49,203.47 224.82,199.89 227.43,198.40 230.03,196.90 230.41,196.77 230.78,196.63 231.18,196.59 231.58,196.55 231.98,196.60 232.38,196.66 232.75,196.81 233.12,196.95 233.45,197.19 233.77,197.42 234.03,197.73 234.29,198.03 234.47,198.39 234.65,198.75 234.74,199.14 234.83,199.53 234.83,199.93 234.82,200.33 234.72,200.72 234.61,201.11 234.42,201.46 234.23,201.81 233.96,202.11 233.69,202.40 233.35,202.62 233.02,202.85 232.76,203.21 232.51,203.57 229.39,204.97 226.26,206.36 221.00,208.34 215.73,210.31 209.46,212.21 203.19,214.11 197.23,215.10 191.28,216.10 186.32,215.49 181.36,214.87 177.30,211.87 173.24,208.87 172.51,204.40 171.79,199.94 176.30,194.85 180.81,189.77 191.96,183.60 203.10,177.43 222.16,171.25 241.22,165.07 271.55,159.41 301.88,153.75 310.97,152.38 320.07,151.00 320.44,151.05 320.82,151.09 321.17,151.23 321.53,151.36 321.84,151.58 322.15,151.79 322.40,152.07 322.66,152.36 322.83,152.69 323.01,153.03 323.10,153.40 323.19,153.77 323.19,154.14 323.19,154.52 323.10,154.89 323.01,155.26 322.83,155.60 322.66,155.93 322.40,156.21 322.15,156.50 321.84,156.71 321.53,156.93 321.17,157.06 320.82,157.20 320.44,157.24 320.07,157.29 318.07,156.45 316.08,155.62 306.02,155.62 295.96,155.62 274.97,155.61 253.98,155.61 222.18,155.60 190.37,155.59 150.74,155.57 111.11,155.55 69.93,156.18 28.74,156.81 -7.90,158.29 -44.56,159.76 -71.85,163.13 -99.13,166.51 -111.69,172.12 -124.24,177.73 -125.60,184.41 -126.95,191.10 -122.04,198.64 -117.13,206.19 -106.41,214.97 -95.70,223.75 -83.17,230.44 -70.64,237.14 -57.70,239.65 -44.75,242.17 -29.10,239.42 -13.45,236.67 5.03,228.06 23.52,219.44 45.05,204.44 66.58,189.45 85.02,172.25 103.46,155.06 118.60,137.51 133.73,119.96 143.92,104.71 154.10,89.46 161.22,79.27 168.34,69.08 173.94,62.58 179.53,56.09 184.98,53.71 190.42,51.34 194.78,52.69 199.15,54.05 199.53,54.05 199.92,54.06 200.29,54.15 200.67,54.25 201.00,54.43 201.34,54.62 201.63,54.87 201.92,55.13 202.13,55.45 202.35,55.77 202.48,56.14 202.61,56.50 202.65,56.88 202.70,57.27 202.65,57.65 202.60,58.03 202.45,58.39 202.31,58.75 202.09,59.06 201.87,59.38 201.58,59.63 201.28,59.88 200.94,60.06 200.60,60.24 200.22,60.32 199.85,60.41 197.46,61.00 195.08,61.60 189.36,62.23 183.65,62.87 172.41,62.97 161.17,63.07 144.47,61.26 127.76,59.45 105.43,55.14 83.10,50.83 63.93,44.03 44.77,37.24 32.60,30.15 20.43,23.07 10.79,15.65 1.15,8.23 -0.87,5.04 -2.90,1.85 -3.08,1.47 -3.26,1.10 -3.34,0.69 -3.43,0.28 -3.41,-0.12 -3.40,-0.54 -3.28,-0.94 -3.17,-1.34 -2.96,-1.70 -2.76,-2.06 -2.47,-2.36 -2.18,-2.66 -1.83,-2.88 -1.48,-3.10 -1.09,-3.24 -0.69,-3.37 -0.28,-3.40 0.12,-3.44 0.53,-3.37 0.94,-3.31 1.33,-3.15 1.71,-2.98 2.04,-2.74 2.38,-2.49 2.64,-2.17 2.90,-1.84 2.90,-1.84 L 2.90,-1.85 Z"></path></g><g transform="translate(699 69) rotate(0 -84 113)" stroke="none"><path fill="#ffffff" d="M 3.02,0.79 Q 3.02,0.79 1.51,6.24 0.01,11.68 -2.09,18.63 -4.20,25.58 -7.39,37.11 -10.59,48.64 -17.15,69.42 -23.72,90.19 -37.24,115.61 -50.77,141.03 -64.07,158.81 -77.37,176.59 -100.44,195.79 -123.51,214.99 -140.84,226.03 -158.17,237.07 -172.35,242.42 -186.54,247.76 -198.75,248.01 -210.97,248.26 -217.49,243.48 -224.01,238.70 -221.91,229.13 -219.81,219.57 -201.06,198.28 -182.30,176.99 -158.84,154.84 -135.37,132.70 -110.44,111.21 -85.50,89.71 -60.84,68.52 -36.17,47.33 -17.94,31.15 0.28,14.97 13.73,1.53 27.17,-11.90 34.91,-19.92 42.64,-27.94 45.65,-31.36 48.66,-34.77 48.90,-34.97 49.15,-35.17 49.44,-35.31 49.72,-35.44 50.03,-35.50 50.34,-35.57 50.66,-35.55 50.98,-35.54 51.28,-35.45 51.59,-35.36 51.86,-35.20 52.13,-35.04 52.36,-34.82 52.59,-34.60 52.76,-34.34 52.93,-34.07 53.03,-33.77 53.13,-33.47 53.15,-33.15 53.17,-32.83 53.12,-32.52 53.07,-32.21 52.95,-31.92 52.82,-31.63 52.63,-31.38 52.44,-31.12 52.97,-28.65 53.50,-26.19 54.46,-19.21 55.43,-12.23 56.97,-3.12 58.50,5.98 60.30,16.78 62.09,27.58 61.99,40.47 61.90,53.36 58.34,66.83 54.78,80.31 44.23,98.29 33.69,116.28 16.45,135.21 -0.78,154.14 -23.95,174.83 -47.12,195.53 -65.84,212.05 -84.57,228.57 -96.52,239.28 -108.47,250.00 -109.39,252.49 -110.32,254.98 -110.63,255.19 -110.94,255.41 -111.29,255.55 -111.65,255.69 -112.02,255.73 -112.40,255.78 -112.77,255.74 -113.15,255.70 -113.51,255.56 -113.86,255.43 -114.18,255.22 -114.49,255.00 -114.74,254.72 -115.00,254.44 -115.17,254.11 -115.35,253.77 -115.45,253.40 -115.54,253.04 -115.54,252.66 -115.54,252.28 -115.46,251.91 -115.37,251.54 -115.19,251.20 -115.02,250.87 -114.77,250.58 -114.52,250.30 -108.73,247.79 -102.95,245.28 -97.62,242.26 -92.30,239.24 -88.63,236.83 -84.97,234.42 -84.33,233.81 -83.70,233.20 -83.38,233.04 -83.06,232.88 -82.71,232.81 -82.36,232.73 -82.00,232.74 -81.64,232.75 -81.30,232.84 -80.95,232.93 -80.64,233.11 -80.32,233.28 -80.06,233.53 -79.80,233.77 -79.60,234.07 -79.41,234.37 -79.29,234.71 -79.17,235.04 -79.13,235.40 -79.10,235.76 -79.15,236.11 -79.20,236.46 -79.34,236.80 -79.47,237.13 -79.68,237.42 -79.89,237.71 -80.16,237.94 -80.44,238.17 -83.75,239.78 -87.07,241.38 -90.63,243.40 -94.19,245.41 -97.09,247.26 -100.00,249.12 -101.86,250.77 -103.72,252.43 -104.52,253.54 -105.32,254.66 -105.73,254.89 -106.13,255.13 -106.58,255.26 -107.03,255.39 -107.50,255.41 -107.96,255.43 -108.42,255.33 -108.88,255.24 -109.30,255.04 -109.72,254.84 -110.09,254.55 -110.45,254.25 -110.73,253.88 -111.01,253.50 -111.19,253.07 -111.38,252.65 -111.45,252.18 -111.53,251.72 -111.49,251.26 -111.46,250.79 -111.31,250.35 -111.16,249.90 -110.91,249.51 -110.66,249.11 -110.33,248.79 -109.99,248.47 -105.60,245.53 -101.20,242.60 -93.56,237.67 -85.91,232.74 -80.28,229.12 -74.65,225.49 -74.20,225.29 -73.76,225.09 -73.28,225.04 -72.79,225.00 -72.32,225.11 -71.85,225.22 -71.43,225.48 -71.02,225.73 -70.71,226.11 -70.40,226.48 -70.23,226.93 -70.05,227.39 -70.03,227.87 -70.01,228.36 -70.15,228.82 -70.29,229.29 -70.56,229.69 -70.84,230.09 -71.23,230.38 -71.62,230.67 -72.09,230.82 -72.55,230.96 -73.03,230.96 -73.52,230.95 -73.98,230.79 -74.44,230.63 -74.82,230.33 -75.20,230.03 -75.47,229.63 -75.74,229.22 -75.86,228.75 -75.98,228.28 -75.95,227.80 -75.92,227.31 -75.73,226.86 -75.55,226.41 -75.23,226.05 -74.91,225.68 -74.49,225.44 -74.07,225.19 -73.59,225.09 -73.12,224.99 -72.64,225.05 -72.15,225.11 -71.72,225.32 -71.28,225.53 -70.93,225.87 -70.58,226.21 -70.36,226.64 -70.14,227.07 -70.06,227.55 -69.99,228.03 -70.08,228.51 -70.16,228.99 -70.40,229.42 -70.63,229.84 -70.99,230.17 -71.34,230.50 -71.34,230.50 -71.34,230.50 -76.89,234.25 -82.45,237.99 -89.93,243.04 -97.41,248.09 -101.37,251.38 -105.32,254.66 -105.73,254.89 -106.13,255.13 -106.58,255.26 -107.03,255.39 -107.50,255.41 -107.96,255.43 -108.42,255.33 -108.88,255.24 -109.30,255.04 -109.72,254.84 -110.09,254.55 -110.45,254.25 -110.73,253.88 -111.01,253.50 -111.19,253.08 -111.38,252.65 -111.45,252.18 -111.53,251.72 -111.49,251.26 -111.46,250.79 -111.31,250.35 -111.16,249.90 -110.91,249.51 -110.66,249.11 -110.33,248.79 -109.99,248.47 -108.98,247.64 -107.98,246.81 -105.58,245.26 -103.18,243.70 -100.12,242.06 -97.06,240.41 -93.35,238.25 -89.64,236.10 -86.67,234.65 -83.70,233.20 -83.38,233.04 -83.06,232.88 -82.71,232.81 -82.36,232.73 -82.00,232.74 -81.64,232.75 -81.30,232.84 -80.95,232.93 -80.64,233.11 -80.32,233.28 -80.06,233.52 -79.80,233.77 -79.60,234.07 -79.41,234.37 -79.29,234.71 -79.17,235.04 -79.13,235.40 -79.10,235.76 -79.15,236.11 -79.20,236.46 -79.34,236.80 -79.47,237.13 -79.68,237.42 -79.89,237.71 -80.16,237.94 -80.44,238.17 -81.26,238.50 -82.08,238.83 -85.89,241.33 -89.70,243.83 -95.20,246.94 -100.70,250.06 -105.51,252.52 -110.32,254.98 -110.63,255.19 -110.94,255.41 -111.29,255.55 -111.65,255.69 -112.02,255.73 -112.40,255.78 -112.77,255.74 -113.15,255.70 -113.51,255.56 -113.86,255.43 -114.18,255.22 -114.49,255.00 -114.74,254.72 -115.00,254.44 -115.17,254.11 -115.35,253.77 -115.45,253.40 -115.54,253.04 -115.54,252.66 -115.54,252.28 -115.46,251.91 -115.37,251.54 -115.19,251.20 -115.02,250.87 -114.77,250.58 -114.52,250.30 -113.31,248.24 -112.11,246.19 -100.10,235.39 -88.09,224.58 -69.38,208.06 -50.67,191.55 -27.71,171.03 -4.75,150.52 12.14,132.01 29.04,113.51 39.28,96.18 49.51,78.86 52.93,66.07 56.35,53.28 56.42,40.90 56.50,28.52 54.63,17.75 52.77,6.98 51.11,-2.19 49.45,-11.37 48.32,-19.01 47.18,-26.65 47.92,-30.71 48.66,-34.77 48.90,-34.97 49.15,-35.17 49.44,-35.31 49.72,-35.44 50.03,-35.50 50.34,-35.57 50.66,-35.55 50.98,-35.54 51.28,-35.45 51.58,-35.36 51.86,-35.20 52.13,-35.04 52.36,-34.82 52.59,-34.60 52.76,-34.34 52.93,-34.07 53.03,-33.77 53.13,-33.47 53.15,-33.15 53.17,-32.84 53.12,-32.52 53.07,-32.21 52.95,-31.92 52.82,-31.63 52.63,-31.38 52.44,-31.12 49.43,-27.71 46.43,-24.29 38.66,-16.24 30.89,-8.19 17.33,5.35 3.77,18.90 -14.48,35.11 -32.74,51.32 -57.41,72.51 -82.07,93.70 -106.91,115.11 -131.76,136.53 -155.06,158.51 -178.36,180.49 -196.60,200.80 -214.83,221.10 -217.22,229.59 -219.62,238.08 -215.08,240.60 -210.54,243.12 -199.42,242.95 -188.30,242.78 -174.66,237.67 -161.01,232.56 -143.97,221.72 -126.93,210.87 -104.30,192.10 -81.67,173.33 -68.62,155.90 -55.58,138.46 -42.28,113.49 -28.99,88.52 -22.51,67.83 -16.03,47.15 -12.88,35.55 -9.74,23.94 -7.75,17.05 -5.76,10.16 -4.39,4.68 -3.02,-0.79 -2.88,-1.14 -2.74,-1.49 -2.52,-1.80 -2.30,-2.10 -2.02,-2.35 -1.73,-2.59 -1.39,-2.76 -1.06,-2.93 -0.69,-3.02 -0.32,-3.10 0.04,-3.10 0.42,-3.09 0.78,-2.99 1.15,-2.90 1.48,-2.72 1.81,-2.54 2.09,-2.28 2.37,-2.03 2.57,-1.72 2.78,-1.40 2.91,-1.05 3.04,-0.69 3.08,-0.32 3.12,0.04 3.07,0.42 3.02,0.79 3.02,0.79 L 3.02,0.79 Z"></path></g><g transform="translate(787 206) rotate(0 -2.5 71.5)" stroke="none"><path fill="#ffffff" d="M 2.57,2.01 Q 2.57,2.01 -2.66,8.57 -7.90,15.13 -11.23,20.10 -14.56,25.06 -19.66,35.94 -24.76,46.82 -29.00,55.83 -33.23,64.84 -37.01,75.16 -40.78,85.48 -41.79,91.57 -42.80,97.66 -38.43,98.69 -34.07,99.72 -28.49,97.38 -22.92,95.03 -14.23,89.79 -5.55,84.54 2.94,77.51 11.44,70.48 18.13,62.72 24.82,54.96 29.30,46.66 33.78,38.35 35.96,32.32 38.15,26.28 38.90,23.33 39.65,20.39 39.59,19.07 39.53,17.76 39.70,17.38 39.88,17.00 40.14,16.68 40.40,16.35 40.74,16.10 41.07,15.85 41.45,15.68 41.83,15.52 42.25,15.45 42.66,15.38 43.07,15.41 43.49,15.44 43.89,15.57 44.28,15.70 44.64,15.92 44.99,16.14 45.28,16.44 45.57,16.74 45.78,17.10 46.00,17.46 46.11,17.86 46.23,18.26 46.25,18.68 46.27,19.09 46.19,19.50 46.11,19.91 44.84,24.61 43.57,29.31 42.85,33.60 42.14,37.89 41.51,43.16 40.88,48.43 39.71,57.61 38.55,66.80 36.59,76.54 34.62,86.29 31.74,95.97 28.85,105.65 25.58,114.13 22.31,122.60 19.42,128.03 16.54,133.46 14.22,136.92 11.91,140.38 11.45,140.46 10.99,140.53 10.74,140.83 10.49,141.13 10.17,141.35 9.85,141.58 9.49,141.73 9.13,141.88 8.74,141.93 8.35,141.99 7.96,141.95 7.57,141.91 7.20,141.78 6.84,141.64 6.51,141.43 6.18,141.21 5.92,140.93 5.65,140.64 5.46,140.30 5.28,139.95 5.17,139.58 5.07,139.20 5.07,138.81 5.06,138.42 5.14,138.03 5.23,137.65 5.40,137.30 5.58,136.95 5.72,133.53 5.86,130.10 7.76,123.94 9.66,117.78 11.02,113.48 12.38,109.18 12.58,108.78 12.77,108.39 13.09,108.08 13.40,107.76 13.80,107.57 14.20,107.37 14.64,107.31 15.08,107.26 15.51,107.34 15.95,107.43 16.33,107.65 16.72,107.87 17.01,108.20 17.31,108.53 17.48,108.94 17.66,109.34 17.69,109.79 17.73,110.23 17.62,110.66 17.51,111.09 17.27,111.46 17.03,111.83 16.68,112.11 16.34,112.39 15.92,112.54 15.50,112.69 15.06,112.70 14.62,112.71 14.19,112.58 13.77,112.45 13.41,112.19 13.05,111.93 12.79,111.56 12.54,111.20 12.41,110.78 12.28,110.35 12.29,109.91 12.31,109.47 12.46,109.05 12.61,108.64 12.89,108.29 13.17,107.95 13.55,107.71 13.92,107.47 14.35,107.37 14.78,107.26 15.22,107.30 15.67,107.34 16.07,107.51 16.48,107.69 16.81,107.99 17.14,108.29 17.35,108.67 17.57,109.06 17.65,109.50 17.73,109.93 17.67,110.37 17.61,110.81 17.61,110.81 17.61,110.81 16.29,115.12 14.97,119.44 13.25,124.93 11.53,130.42 11.26,135.48 10.99,140.53 10.74,140.83 10.49,141.13 10.17,141.35 9.85,141.58 9.49,141.73 9.13,141.87 8.74,141.93 8.35,141.99 7.96,141.95 7.57,141.91 7.21,141.78 6.84,141.64 6.51,141.43 6.18,141.21 5.92,140.93 5.65,140.64 5.47,140.30 5.28,139.95 5.17,139.58 5.07,139.20 5.07,138.81 5.06,138.42 5.14,138.04 5.23,137.65 5.40,137.30 5.58,136.95 6.87,136.68 8.15,136.41 9.95,133.66 11.74,130.91 14.46,125.77 17.17,120.62 20.33,112.35 23.48,104.07 26.24,94.62 29.00,85.18 30.84,75.64 32.68,66.09 33.72,56.94 34.75,47.79 35.23,42.39 35.71,36.98 36.24,32.41 36.78,27.83 38.15,22.80 39.53,17.76 39.70,17.38 39.88,17.00 40.14,16.68 40.40,16.35 40.74,16.10 41.07,15.85 41.45,15.68 41.83,15.52 42.25,15.45 42.66,15.38 43.07,15.41 43.49,15.44 43.89,15.57 44.28,15.70 44.64,15.92 44.99,16.14 45.28,16.44 45.57,16.74 45.78,17.10 46.00,17.46 46.11,17.86 46.23,18.26 46.25,18.68 46.27,19.09 46.19,19.50 46.11,19.91 45.81,21.09 45.51,22.27 44.34,25.18 43.17,28.10 40.84,34.50 38.51,40.91 33.73,49.70 28.95,58.49 21.95,66.60 14.96,74.70 6.15,82.01 -2.64,89.32 -11.68,94.81 -20.71,100.31 -27.07,102.93 -33.43,105.56 -38.48,105.79 -43.54,106.01 -45.83,101.63 -48.12,97.25 -47.04,90.43 -45.97,83.62 -42.15,73.04 -38.32,62.47 -34.15,53.43 -29.97,44.40 -24.75,33.11 -19.53,21.82 -16.16,16.56 -12.79,11.31 -7.68,4.64 -2.57,-2.01 -2.29,-2.29 -2.02,-2.57 -1.68,-2.78 -1.34,-2.98 -0.96,-3.10 -0.59,-3.22 -0.19,-3.24 0.19,-3.26 0.58,-3.19 0.97,-3.12 1.33,-2.96 1.69,-2.80 2.00,-2.55 2.31,-2.31 2.55,-2.00 2.80,-1.69 2.96,-1.33 3.12,-0.97 3.19,-0.58 3.26,-0.19 3.24,0.19 3.22,0.58 3.10,0.96 2.98,1.34 2.78,1.68 2.57,2.01 2.57,2.01 L 2.57,2.01 Z"></path></g><g transform="translate(837 267) rotate(0 69.5 40.5)" stroke="none"><path fill="#ffffff" d="M 3.97,-0.37 Q 3.97,-0.37 4.65,8.84 5.33,18.06 5.56,22.88 5.80,27.70 4.69,35.25 3.59,42.79 1.56,48.19 -0.45,53.59 -3.84,57.58 -7.22,61.58 -8.64,63.26 -10.07,64.94 -10.37,65.21 -10.67,65.49 -11.03,65.68 -11.38,65.88 -11.78,65.98 -12.17,66.08 -12.58,66.09 -12.99,66.10 -13.38,66.01 -13.78,65.91 -14.14,65.73 -14.51,65.55 -14.82,65.28 -15.12,65.01 -15.36,64.68 -15.60,64.35 -15.75,63.97 -15.90,63.59 -15.95,63.19 -16.01,62.79 -15.96,62.38 -15.92,61.98 -15.78,61.59 -15.64,61.21 -15.42,60.87 -15.19,60.53 -14.18,57.39 -13.16,54.24 -11.41,51.46 -9.66,48.67 -8.07,46.49 -6.48,44.31 1.30,36.06 9.08,27.80 18.80,18.54 28.52,9.29 37.26,1.09 46.00,-7.09 56.10,-16.04 66.19,-24.99 73.49,-30.02 80.80,-35.06 86.52,-36.65 92.24,-38.25 94.91,-35.32 97.57,-32.39 97.48,-24.71 97.38,-17.02 93.69,-5.94 90.00,5.14 79.36,20.64 68.73,36.15 55.82,50.22 42.91,64.28 31.99,75.67 21.06,87.06 15.60,93.28 10.14,99.50 7.88,100.93 5.63,102.35 7.56,103.95 9.50,105.55 13.98,107.00 18.45,108.44 24.79,110.08 31.13,111.72 40.61,112.99 50.09,114.27 62.47,115.41 74.85,116.55 87.26,117.04 99.66,117.54 111.19,117.18 122.72,116.82 130.70,115.83 138.68,114.83 142.81,113.87 146.95,112.91 146.77,109.94 146.60,106.97 145.85,104.55 145.11,102.13 144.24,97.56 143.37,93.00 143.30,87.01 143.23,81.03 143.58,69.73 143.93,58.43 144.20,50.19 144.46,41.95 144.56,41.39 144.66,40.83 144.93,40.32 145.21,39.82 145.63,39.43 146.05,39.04 146.57,38.81 147.09,38.58 147.66,38.52 148.23,38.47 148.79,38.60 149.34,38.73 149.83,39.03 150.32,39.33 150.68,39.77 151.05,40.21 151.25,40.74 151.46,41.28 151.48,41.85 151.51,42.42 151.35,42.97 151.19,43.52 150.86,43.99 150.53,44.46 150.07,44.80 149.61,45.14 149.07,45.31 148.53,45.49 147.95,45.48 147.38,45.48 146.84,45.29 146.30,45.10 145.85,44.75 145.40,44.40 145.08,43.92 144.77,43.44 144.62,42.89 144.48,42.33 144.51,41.76 144.55,41.19 144.77,40.66 144.99,40.14 145.36,39.70 145.74,39.27 146.23,38.98 146.73,38.69 147.29,38.58 147.85,38.46 148.41,38.53 148.98,38.60 149.50,38.85 150.01,39.09 150.43,39.49 150.84,39.89 151.10,40.40 151.36,40.91 151.45,41.47 151.53,42.04 151.53,42.04 151.53,42.04 151.60,50.28 151.67,58.52 151.76,69.51 151.84,80.50 152.56,88.45 153.28,96.40 153.85,99.82 154.43,103.24 154.58,106.00 154.73,108.77 154.24,111.51 153.74,114.25 151.03,116.16 148.31,118.06 143.83,119.12 139.35,120.18 131.13,121.23 122.90,122.27 111.17,122.67 99.45,123.06 86.90,122.61 74.35,122.16 61.85,121.08 49.35,119.99 39.52,118.75 29.69,117.51 23.06,115.92 16.42,114.34 10.67,112.26 4.92,110.18 3.09,107.54 1.26,104.90 3.67,100.42 6.08,95.94 11.60,89.61 17.12,83.28 27.98,71.91 38.83,60.54 51.46,46.75 64.09,32.95 74.31,18.10 84.54,3.25 87.98,-7.03 91.42,-17.33 91.87,-23.42 92.32,-29.51 90.85,-31.94 89.39,-34.36 86.76,-32.31 84.12,-30.26 77.17,-25.37 70.22,-20.48 60.31,-11.48 50.39,-2.49 41.81,5.82 33.24,14.14 23.87,23.44 14.49,32.74 7.12,41.09 -0.24,49.44 -1.86,51.16 -3.48,52.88 -5.21,55.21 -6.94,57.54 -8.50,61.24 -10.07,64.94 -10.37,65.21 -10.67,65.49 -11.03,65.68 -11.38,65.88 -11.78,65.98 -12.17,66.08 -12.58,66.09 -12.99,66.10 -13.38,66.01 -13.78,65.91 -14.14,65.73 -14.51,65.55 -14.82,65.28 -15.12,65.01 -15.36,64.68 -15.60,64.35 -15.75,63.97 -15.90,63.59 -15.95,63.19 -16.01,62.79 -15.96,62.38 -15.92,61.98 -15.78,61.59 -15.64,61.21 -15.42,60.87 -15.19,60.53 -13.41,59.16 -11.63,57.79 -8.83,54.59 -6.04,51.40 -4.34,46.65 -2.65,41.90 -1.77,35.04 -0.88,28.18 -1.38,23.46 -1.88,18.73 -2.92,9.55 -3.97,0.37 -3.95,-0.10 -3.94,-0.58 -3.81,-1.05 -3.69,-1.51 -3.45,-1.93 -3.22,-2.35 -2.89,-2.70 -2.56,-3.05 -2.15,-3.32 -1.75,-3.58 -1.30,-3.74 -0.84,-3.89 -0.36,-3.94 0.10,-3.98 0.58,-3.91 1.06,-3.84 1.50,-3.66 1.95,-3.48 2.33,-3.19 2.72,-2.91 3.03,-2.54 3.34,-2.17 3.55,-1.74 3.76,-1.31 3.87,-0.84 3.97,-0.37 3.97,-0.37 L 3.97,-0.37 Z"></path></g><g transform="translate(1012 195) rotate(0 7.5 76)" stroke="none"><path fill="#ffffff" d="M 2.93,-1.15 Q 2.93,-1.15 5.45,5.48 7.97,12.12 9.39,15.80 10.81,19.49 11.96,23.78 13.11,28.07 14.43,33.62 15.76,39.18 16.91,48.88 18.06,58.58 18.54,66.74 19.01,74.89 18.92,81.88 18.83,88.86 17.03,97.79 15.23,106.71 12.43,115.97 9.63,125.24 7.01,133.19 4.38,141.13 2.45,146.98 0.51,152.83 0.31,153.21 0.12,153.59 -0.18,153.88 -0.49,154.18 -0.88,154.36 -1.27,154.54 -1.70,154.59 -2.12,154.64 -2.54,154.55 -2.96,154.46 -3.33,154.24 -3.70,154.03 -3.98,153.70 -4.26,153.38 -4.42,152.98 -4.58,152.58 -4.61,152.15 -4.63,151.72 -4.52,151.31 -4.41,150.90 -4.17,150.54 -3.93,150.18 -3.59,149.92 -3.25,149.66 -2.85,149.52 -2.44,149.38 -2.01,149.38 -1.58,149.38 -1.18,149.51 -0.77,149.65 -0.42,149.90 -0.08,150.16 0.15,150.51 0.39,150.87 0.51,151.28 0.63,151.69 0.61,152.12 0.59,152.55 0.43,152.95 0.27,153.35 0.00,153.68 -0.27,154.00 -0.63,154.23 -1.00,154.45 -1.42,154.55 -1.84,154.64 -2.26,154.60 -2.69,154.55 -3.08,154.38 -3.47,154.20 -3.78,153.91 -4.10,153.61 -4.30,153.23 -4.50,152.86 -4.57,152.43 -4.65,152.01 -4.58,151.59 -4.51,151.16 -4.51,151.16 -4.51,151.16 -2.59,145.31 -0.66,139.46 1.92,131.58 4.52,123.70 7.24,114.67 9.96,105.64 11.68,97.21 13.40,88.78 13.46,82.00 13.53,75.23 13.02,67.24 12.52,59.25 11.37,49.90 10.22,40.55 8.83,35.10 7.44,29.66 6.26,25.65 5.08,21.65 3.72,17.98 2.37,14.32 -0.28,7.73 -2.93,1.15 -3.03,0.78 -3.12,0.41 -3.13,0.03 -3.13,-0.34 -3.04,-0.71 -2.96,-1.08 -2.78,-1.42 -2.61,-1.76 -2.36,-2.05 -2.11,-2.34 -1.80,-2.55 -1.49,-2.77 -1.14,-2.91 -0.78,-3.05 -0.41,-3.10 -0.03,-3.15 0.34,-3.11 0.72,-3.07 1.08,-2.94 1.43,-2.80 1.75,-2.59 2.06,-2.38 2.32,-2.10 2.57,-1.81 2.75,-1.48 2.93,-1.14 2.93,-1.14 L 2.93,-1.15 Z"></path></g><g transform="translate(1086 269) rotate(0 12 55.5)" stroke="none"><path fill="#ffffff" d="M 3.50,1.30 Q 3.50,1.30 -0.37,11.31 -4.25,21.32 -6.81,27.59 -9.37,33.87 -13.96,44.60 -18.54,55.32 -21.96,62.50 -25.39,69.68 -27.99,75.27 -30.60,80.87 -33.46,86.72 -36.32,92.58 -38.40,96.07 -40.49,99.57 -41.18,100.82 -41.87,102.06 -42.12,102.38 -42.37,102.69 -42.68,102.94 -43.00,103.18 -43.37,103.34 -43.74,103.50 -44.13,103.57 -44.53,103.64 -44.93,103.62 -45.33,103.59 -45.71,103.47 -46.09,103.34 -46.43,103.13 -46.78,102.92 -47.06,102.64 -47.34,102.35 -47.54,102.00 -47.75,101.66 -47.86,101.28 -47.98,100.89 -48.00,100.49 -48.02,100.09 -47.95,99.70 -47.87,99.30 -47.70,98.94 -47.53,98.57 -47.35,92.06 -47.16,85.55 -44.70,78.66 -42.25,71.77 -37.32,64.34 -32.39,56.92 -26.49,50.30 -20.58,43.68 -11.51,37.82 -2.43,31.97 6.22,29.16 14.87,26.35 24.79,25.74 34.71,25.13 42.61,26.95 50.52,28.77 56.07,31.69 61.61,34.61 64.82,38.50 68.03,42.39 68.87,47.96 69.70,53.53 67.30,60.22 64.89,66.91 59.71,74.12 54.53,81.34 46.15,88.52 37.78,95.71 29.84,100.79 21.91,105.87 16.18,107.67 10.46,109.47 7.27,107.12 4.08,104.77 3.39,97.92 2.69,91.06 5.80,82.19 8.91,73.33 14.37,64.92 19.84,56.50 25.42,50.57 31.00,44.63 35.01,40.39 39.02,36.14 39.37,35.87 39.72,35.61 40.13,35.46 40.55,35.32 40.98,35.32 41.42,35.32 41.84,35.46 42.25,35.60 42.60,35.86 42.95,36.12 43.20,36.49 43.45,36.85 43.57,37.27 43.69,37.69 43.67,38.13 43.64,38.57 43.48,38.98 43.32,39.38 43.04,39.72 42.76,40.05 42.38,40.28 42.01,40.51 41.58,40.60 41.15,40.70 40.72,40.65 40.28,40.61 39.88,40.43 39.48,40.24 39.16,39.94 38.84,39.64 38.64,39.26 38.43,38.87 38.36,38.44 38.29,38.01 38.36,37.57 38.42,37.14 38.63,36.75 38.83,36.36 39.15,36.06 39.47,35.76 39.86,35.57 40.26,35.39 40.70,35.34 41.13,35.29 41.56,35.38 41.99,35.47 42.37,35.70 42.74,35.92 43.03,36.26 43.31,36.59 43.48,37.00 43.64,37.40 43.66,37.84 43.69,38.28 43.57,38.70 43.46,39.12 43.21,39.49 42.97,39.85 42.97,39.85 42.97,39.85 38.98,44.12 34.99,48.39 29.74,53.97 24.49,59.55 19.37,67.42 14.24,75.28 11.37,83.08 8.50,90.87 8.61,96.15 8.72,101.42 10.14,103.27 11.56,105.12 15.33,103.27 19.09,101.42 26.73,96.56 34.36,91.69 42.32,84.95 50.28,78.21 55.13,71.60 59.98,64.99 62.23,59.44 64.48,53.89 64.10,49.61 63.72,45.32 61.35,42.26 58.98,39.21 54.11,36.59 49.24,33.98 42.10,32.25 34.97,30.53 25.73,31.04 16.50,31.56 8.51,34.11 0.51,36.66 -7.93,42.06 -16.39,47.47 -21.97,53.80 -27.55,60.14 -32.06,66.97 -36.58,73.80 -38.75,80.15 -40.91,86.50 -41.52,90.78 -42.13,95.06 -42.00,98.56 -41.87,102.06 -42.12,102.38 -42.37,102.69 -42.68,102.94 -43.00,103.18 -43.37,103.34 -43.74,103.50 -44.13,103.57 -44.53,103.64 -44.93,103.62 -45.33,103.59 -45.71,103.47 -46.09,103.34 -46.43,103.13 -46.78,102.92 -47.06,102.64 -47.34,102.35 -47.54,102.00 -47.75,101.66 -47.86,101.28 -47.98,100.89 -48.00,100.49 -48.02,100.09 -47.95,99.70 -47.87,99.30 -47.70,98.94 -47.53,98.57 -46.47,97.55 -45.41,96.53 -43.38,93.34 -41.34,90.15 -38.56,84.32 -35.79,78.49 -33.25,72.84 -30.71,67.19 -27.44,60.07 -24.17,52.96 -19.77,42.25 -15.37,31.53 -13.03,25.23 -10.69,18.92 -7.09,8.81 -3.50,-1.30 -3.29,-1.70 -3.08,-2.10 -2.79,-2.43 -2.49,-2.77 -2.12,-3.03 -1.75,-3.29 -1.33,-3.45 -0.91,-3.62 -0.47,-3.67 -0.02,-3.73 0.42,-3.68 0.86,-3.63 1.29,-3.47 1.71,-3.31 2.08,-3.06 2.45,-2.81 2.75,-2.47 3.05,-2.14 3.27,-1.74 3.48,-1.34 3.59,-0.91 3.70,-0.47 3.70,-0.02 3.71,0.42 3.60,0.86 3.50,1.30 3.50,1.30 L 3.50,1.30 Z"></path></g><g transform="translate(1268 295) rotate(0 -61 -21.5)" stroke="none"><path fill="#ffffff" d="M 1.75,3.37 Q 1.75,3.37 -20.45,14.73 -42.66,26.09 -58.82,33.21 -74.98,40.34 -88.77,45.92 -102.56,51.51 -117.34,57.30 -132.12,63.10 -141.81,67.25 -151.50,71.40 -158.92,73.78 -166.35,76.16 -169.78,77.30 -173.21,78.44 -176.57,77.10 -179.92,75.76 -179.51,71.30 -179.09,66.85 -177.48,63.84 -175.87,60.84 -171.57,56.81 -167.26,52.78 -161.82,49.37 -156.37,45.96 -148.68,43.06 -140.99,40.16 -132.61,38.95 -124.24,37.74 -115.99,39.06 -107.73,40.38 -102.38,44.72 -97.03,49.06 -94.69,54.59 -92.34,60.12 -94.06,67.49 -95.77,74.86 -98.35,79.97 -100.94,85.07 -104.22,88.61 -107.50,92.14 -106.99,91.68 -106.48,91.21 -106.74,91.49 -107.01,91.77 -107.34,91.98 -107.67,92.18 -108.03,92.31 -108.40,92.43 -108.79,92.46 -109.17,92.49 -109.55,92.43 -109.93,92.37 -110.29,92.21 -110.64,92.06 -110.95,91.83 -111.26,91.60 -111.51,91.30 -111.75,91.00 -111.92,90.65 -112.08,90.30 -112.16,89.92 -112.24,89.54 -112.22,89.16 -112.21,88.77 -112.10,88.40 -111.99,88.03 -111.80,87.69 -111.60,87.36 -110.63,84.30 -109.65,81.25 -107.30,76.43 -104.95,71.61 -94.67,55.97 -84.39,40.33 -70.25,20.49 -56.10,0.65 -42.92,-18.36 -29.74,-37.39 -15.24,-60.38 -0.75,-83.37 11.13,-104.88 23.02,-126.39 31.55,-141.60 40.07,-156.82 43.98,-163.57 47.90,-170.31 48.09,-170.57 48.28,-170.83 48.52,-171.04 48.77,-171.25 49.06,-171.39 49.34,-171.53 49.66,-171.60 49.97,-171.66 50.29,-171.66 50.61,-171.65 50.92,-171.56 51.23,-171.48 51.51,-171.32 51.79,-171.16 52.03,-170.94 52.26,-170.73 52.44,-170.46 52.61,-170.19 52.72,-169.88 52.82,-169.58 52.85,-169.26 52.88,-168.94 52.83,-168.62 52.79,-168.31 52.67,-168.01 52.54,-167.71 54.60,-167.06 56.65,-166.40 55.96,-149.74 55.28,-133.08 14.44,-57.10 -26.38,18.86 -43.39,50.89 -60.40,82.92 -63.61,93.37 -66.83,103.82 -67.02,104.10 -67.21,104.37 -67.46,104.59 -67.71,104.81 -68.01,104.97 -68.31,105.12 -68.63,105.20 -68.95,105.28 -69.29,105.28 -69.62,105.28 -69.94,105.19 -70.27,105.11 -70.56,104.96 -70.86,104.80 -71.11,104.58 -71.36,104.36 -71.54,104.08 -71.73,103.81 -71.85,103.49 -71.97,103.18 -72.01,102.85 -72.04,102.52 -72.00,102.19 -71.96,101.86 -71.84,101.54 -71.72,101.23 -65.06,100.36 -58.40,99.49 -45.67,92.41 -32.94,85.32 -25.53,81.38 -18.11,77.43 -13.29,77.12 -8.47,76.81 -6.34,79.65 -4.20,82.48 -2.68,87.99 -1.16,93.51 2.20,101.27 5.57,109.04 8.97,115.50 12.38,121.96 14.46,125.38 16.54,128.81 18.23,128.88 19.93,128.95 20.40,129.18 20.86,129.41 21.22,129.78 21.58,130.14 21.81,130.60 22.04,131.07 22.11,131.58 22.18,132.09 22.08,132.59 21.98,133.10 21.73,133.55 21.47,133.99 21.09,134.34 20.71,134.68 20.23,134.88 19.76,135.09 19.24,135.13 18.73,135.17 18.23,135.04 17.73,134.92 17.30,134.64 16.86,134.36 16.54,133.96 16.22,133.56 16.04,133.07 15.87,132.59 15.85,132.07 15.84,131.56 15.99,131.07 16.14,130.58 16.45,130.16 16.75,129.74 17.17,129.44 17.59,129.14 18.08,128.99 18.57,128.84 19.09,128.85 19.60,128.87 20.08,129.05 20.57,129.23 20.97,129.55 21.37,129.87 21.65,130.31 21.92,130.74 22.05,131.24 22.17,131.74 22.13,132.26 22.08,132.77 21.88,133.24 21.68,133.72 21.33,134.10 20.99,134.48 20.54,134.73 20.09,134.99 19.58,135.08 19.08,135.18 18.56,135.11 18.05,135.04 18.05,135.04 18.06,135.04 15.28,133.73 12.50,132.42 9.88,128.56 7.26,124.70 3.66,118.09 0.06,111.47 -3.57,103.36 -7.21,95.25 -8.65,90.46 -10.08,85.67 -10.85,83.20 -11.63,80.73 -13.64,81.48 -15.66,82.22 -22.99,86.17 -30.32,90.11 -44.15,97.53 -57.98,104.95 -62.40,104.39 -66.83,103.82 -67.02,104.10 -67.21,104.37 -67.46,104.59 -67.71,104.81 -68.01,104.97 -68.30,105.12 -68.63,105.20 -68.95,105.28 -69.29,105.28 -69.62,105.28 -69.94,105.19 -70.27,105.11 -70.56,104.96 -70.86,104.80 -71.11,104.58 -71.35,104.36 -71.54,104.08 -71.73,103.81 -71.85,103.49 -71.97,103.18 -72.01,102.85 -72.04,102.52 -72.00,102.19 -71.96,101.86 -71.84,101.55 -71.72,101.23 -68.56,90.76 -65.39,80.29 -48.43,48.20 -31.48,16.12 8.94,-58.76 49.37,-133.65 50.47,-148.60 51.58,-163.56 49.74,-166.94 47.90,-170.31 48.09,-170.57 48.28,-170.83 48.52,-171.04 48.77,-171.25 49.06,-171.39 49.34,-171.53 49.66,-171.60 49.97,-171.66 50.29,-171.66 50.61,-171.65 50.92,-171.56 51.23,-171.48 51.51,-171.32 51.79,-171.16 52.03,-170.94 52.26,-170.73 52.44,-170.46 52.61,-170.19 52.72,-169.88 52.82,-169.58 52.85,-169.26 52.88,-168.94 52.83,-168.62 52.79,-168.31 52.67,-168.01 52.54,-167.71 48.64,-160.96 44.74,-154.20 36.24,-138.99 27.74,-123.79 15.79,-102.13 3.85,-80.47 -10.67,-57.36 -25.20,-34.26 -38.37,-15.17 -51.53,3.91 -65.56,23.69 -79.58,43.47 -89.59,58.82 -99.60,74.17 -101.69,78.68 -103.77,83.19 -105.13,87.20 -106.48,91.21 -106.74,91.49 -107.01,91.77 -107.34,91.98 -107.67,92.18 -108.03,92.31 -108.40,92.43 -108.78,92.46 -109.17,92.49 -109.55,92.43 -109.93,92.37 -110.29,92.21 -110.64,92.06 -110.95,91.83 -111.26,91.60 -111.51,91.30 -111.75,91.00 -111.92,90.65 -112.08,90.30 -112.16,89.92 -112.24,89.54 -112.22,89.16 -112.21,88.77 -112.10,88.40 -111.99,88.03 -111.80,87.69 -111.60,87.36 -109.80,87.29 -107.99,87.22 -106.88,84.91 -105.77,82.60 -103.43,78.02 -101.09,73.44 -99.33,67.49 -97.57,61.54 -99.24,57.37 -100.90,53.20 -104.98,49.62 -109.06,46.03 -116.24,44.93 -123.41,43.83 -131.04,45.03 -138.67,46.23 -145.63,49.02 -152.60,51.81 -157.29,55.02 -161.97,58.22 -165.28,61.64 -168.58,65.06 -169.99,67.42 -171.40,69.77 -173.08,71.17 -174.77,72.57 -171.43,71.70 -168.08,70.83 -160.93,68.49 -153.77,66.14 -144.04,61.87 -134.30,57.60 -119.60,51.70 -104.90,45.80 -91.27,40.10 -77.64,34.40 -61.76,27.15 -45.88,19.90 -23.81,8.26 -1.75,-3.37 -1.32,-3.53 -0.89,-3.69 -0.43,-3.74 0.01,-3.80 0.47,-3.74 0.92,-3.68 1.35,-3.52 1.78,-3.35 2.15,-3.09 2.53,-2.83 2.83,-2.49 3.13,-2.14 3.35,-1.74 3.56,-1.33 3.66,-0.88 3.77,-0.44 3.77,0.01 3.77,0.47 3.66,0.91 3.55,1.36 3.33,1.76 3.12,2.17 2.81,2.51 2.50,2.85 2.13,3.11 1.75,3.37 1.75,3.37 L 1.75,3.37 Z"></path></g><g transform="translate(1345 354) rotate(0 5.5 -24.5)" stroke="none"><path fill="#ffffff" d="M -4.24,-1.29 Q -4.24,-1.29 -2.00,-7.83 0.23,-14.37 2.09,-22.16 3.94,-29.95 4.73,-33.85 5.53,-37.75 5.64,-39.96 5.75,-42.18 6.19,-45.90 6.64,-49.63 6.86,-50.31 7.07,-50.98 7.49,-51.56 7.91,-52.13 8.49,-52.54 9.08,-52.95 9.76,-53.16 10.44,-53.36 11.15,-53.33 11.86,-53.31 12.53,-53.06 13.19,-52.80 13.74,-52.35 14.29,-51.90 14.67,-51.30 15.05,-50.70 15.22,-50.01 15.38,-49.31 15.32,-48.60 15.25,-47.90 14.97,-47.24 14.68,-46.59 14.20,-46.07 13.72,-45.54 13.10,-45.20 12.48,-44.85 11.78,-44.72 11.08,-44.60 10.37,-44.70 9.67,-44.80 9.03,-45.12 8.40,-45.45 7.90,-45.95 7.40,-46.46 7.09,-47.10 6.78,-47.74 6.69,-48.45 6.60,-49.15 6.74,-49.85 6.88,-50.55 7.24,-51.17 7.59,-51.78 8.13,-52.25 8.66,-52.72 9.32,-53.00 9.97,-53.27 10.68,-53.32 11.39,-53.38 12.08,-53.20 12.77,-53.02 13.37,-52.63 13.96,-52.24 14.40,-51.68 14.84,-51.13 15.08,-50.46 15.32,-49.78 15.34,-49.07 15.35,-48.36 15.35,-48.36 15.35,-48.36 14.34,-44.75 13.33,-41.13 12.82,-38.82 12.31,-36.50 11.64,-32.47 10.98,-28.43 9.39,-20.25 7.81,-12.07 6.02,-5.39 4.24,1.29 4.02,1.77 3.80,2.26 3.48,2.69 3.15,3.11 2.73,3.44 2.31,3.77 1.83,4.00 1.34,4.22 0.82,4.32 0.29,4.42 -0.23,4.39 -0.77,4.36 -1.28,4.20 -1.79,4.05 -2.25,3.78 -2.71,3.50 -3.09,3.13 -3.47,2.75 -3.75,2.30 -4.03,1.84 -4.19,1.33 -4.35,0.82 -4.39,0.29 -4.42,-0.23 -4.33,-0.76 -4.24,-1.29 -4.24,-1.29 L -4.24,-1.29 Z"></path></g></svg>